PathFileType	4	(X/Y/Z)	pose_F01_0-96.trc
DataRate	CameraRate	NumFrames	NumMarkers	Units	OrigDataRate	OrigDataStartFrame	OrigNumFrames
30	30	7	21	m	30	60	96
Frame#	Time	CHip			RHip			RKnee			RAnkle			RBigToe			RSmallToe			RHeel			LHip			LKnee			LAnkle			LBigToe			LSmallToe			LHeel			Neck			Nose			RShoulder			RElbow			RWrist			LShoulder			LElbow			LWrist			
		X1	Y1	Z1	X2	Y2	Z2	X3	Y3	Z3	X4	Y4	Z4	X5	Y5	Z5	X6	Y6	Z6	X7	Y7	Z7	X8	Y8	Z8	X9	Y9	Z9	X10	Y10	Z10	X11	Y11	Z11	X12	Y12	Z12	X13	Y13	Z13	X14	Y14	Z14	X15	Y15	Z15	X16	Y16	Z16	X17	Y17	Z17	X18	Y18	Z18	X19	Y19	Z19	X20	Y20	Z20	X21	Y21	Z21	
60	2.0	-0.2103021976128593	1.828712582752746	-0.6621811358199775	-0.22207565595672876	1.8281763160242703	-0.5951156227800705	-0.25188603008197735	1.6947692230634275	-0.5753771736459508	-0.24533790093952407	1.5514455203102373	-0.5325954594663047	-0.27998456807895034	1.5189153192763019	-0.5332430268031891	-0.27668475515241236	1.5232088296137531	-0.5022333615138955	-0.23962239457222348	1.5436444724896485	-0.5329767105589173	-0.19005378277338475	1.8285526810489783	-0.7239836997075196	-0.18587674823256892	1.6910753805707128	-0.7024962434227541	-0.17544744646271485	1.5542759570271443	-0.6757756862239664	-0.3121973742363933	1.468679292355372	-1.0332677525748726	-0.29080439961951676	1.4709323045411984	-1.0415814633907197	-0.1674245180319163	1.5408960959298716	-0.6741130325313125	-0.19860839400802008	1.98676116711016	-0.6883647886151038	-0.24970796512028492	2.047552799596646	-0.672724580719449	-0.21607767035575798	1.9859864622190624	-0.6020121910482963	-0.23101967779540764	1.9176276316748853	-0.5513290140291182	-0.6390589899980732	1.8464931533318323	-0.22691608260614987	-0.17914996257963695	1.988758042570393	-0.7749344947247613	-1.0022263351902927	1.8291737925597944	0.029278036844403686	-0.1511173350924568	1.8224031048679452	-0.8465826280904909
61	2.033333333333333	-0.20645742975825288	1.828119096896539	-0.6662992307143222	-0.21835087672318843	1.828990069599777	-0.5996206907735683	-0.23967653916775708	1.6893093538867217	-0.5831427216090671	-0.21274420836802285	1.561339651283273	-0.5668949647561731	-0.258759931956933	1.5229066940540208	-0.550410625775107	-0.25050133252115186	1.527261812947534	-0.5289419024796753	-0.20160175735963354	1.549333703424885	-0.5641633688480578	-0.18755048669075589	1.8280567404008585	-0.7228719947161367	-0.18650276396216733	1.6868268074431854	-0.7012483347457432	-0.28481256398132326	1.4956088507681187	-1.095582033905558	-0.31227115501355224	1.4667368800175644	-1.0335136023970444	-0.29087287844912024	1.4692797051624795	-1.0417047680897897	-0.2818632470711399	1.483043444655599	-1.1086544742989854	-0.19213126313883522	1.9942221151260313	-0.6964570980790847	-0.24316036951124168	2.048553643779014	-0.6792649972507654	-0.21160144472852468	1.9922085976688595	-0.6162180681543847	-0.2507703921020716	1.9308691989248725	-0.6025689468181691	-0.9844924943644122	1.8620149068258427	0.10590383057453945	-0.16836390993823172	1.9921517593498073	-0.7668460170048977	-0.15435534356513256	1.9076022952423524	-0.8034322592570682	-0.16390739909693589	1.8232087731735958	-0.8378926916344748
62	2.066666666666667	-0.20019010163833964	1.834811305325638	-0.6654281133877123	-0.21317570540694059	1.8329313864030403	-0.6015595024973494	-0.2192260677519039	1.6921023792441148	-0.5876284273954795	-0.19270012660840571	1.55795137727928	-0.5880653263000994	-0.23576187754580424	1.5238254083099103	-0.5829584957277927	-0.2304927456435112	1.5264644766471573	-0.5631905902672013	-0.18512914838555006	1.5487394685257403	-0.5858507571882835	-0.1853378153998386	1.8338167422879361	-0.7256074312923965	-0.18576578884207404	1.6959034687851353	-0.7069707073711359	-0.2862034604905267	1.497439086493726	-1.088764352970072	-0.313544338170412	1.468955822932285	-1.0280151085904121	-0.29309625177142007	1.4709494035907422	-1.039168984135176	-0.28176750952657686	1.4827784242673643	-1.10640182611913	-0.18889660968242256	1.994915150922957	-0.6952782917095885	-0.2387805907629983	2.050931488759674	-0.6840092593279593	-0.21134663256202454	1.9942199530791012	-0.616164535536512	-0.26175896815240607	1.9439579474821251	-0.5608975769494755	-1.329925998730751	1.8775366603198531	0.4387237437552289	-0.16288947653573574	1.9905951917990015	-0.7682027455492418	-0.1507927202672585	1.9082667936110111	-0.7999138367858829	-0.16912252458533822	1.8294972164041239	-0.8222763384883597
63	2.1	-0.19316259017147633	1.8239594043560328	-0.6591840441243942	-0.20872324242420015	1.820605285777818	-0.6044305306968816	-0.20128779107026287	1.6845912549715065	-0.6014578079260623	-0.1845812429716673	1.5526496995876036	-0.5956140535043547	-0.2301799859015385	1.520449455339285	-0.5970045892009428	-0.2260184899768053	1.5233400336466811	-0.5801179029444469	-0.17672479076757228	1.5447205520290883	-0.5938320640683006	-0.1791235735512488	1.8259189727862817	-0.7229460333946913	-0.18309403441145605	1.6856998076394538	-0.708695711529191	-0.282930606677267	1.4964570857469661	-1.0894989405569202	-0.3090382077528453	1.4680211036912907	-1.0349527030944363	-0.28987716560690846	1.469744460344966	-1.0388643240063904	-0.27869798680765734	1.4832048392834636	-1.1079108293377589	-0.18257712140935994	1.99585967727931	-0.693738760380732	-0.22998330337124617	2.052896847213083	-0.6927389585441328	-0.20700274418126477	1.9959943849664237	-0.6207893047364609	-0.25274232765034804	1.937595183464675	-0.5362876881480334	-0.9720774338050286	1.869789166589782	0.16411228060844096	-0.15441168309105152	1.9909369846647134	-0.7690199029819318	-0.14270088527575445	1.9079645763871484	-0.8034181197155544	-0.16800147731199916	1.8348568711250193	-0.8117018828479784
64	2.1333333333333333	-0.18440008183258882	1.8243666681847142	-0.668381059153211	-0.20023059847022076	1.8211533276196905	-0.6136145384615166	-0.1964501046733158	1.687500022944178	-0.6069086793593047	-0.18499390829314658	1.5556798348714855	-0.5951768740451346	-0.23118286676500202	1.5206826327429734	-0.6002829509096359	-0.22286252869218073	1.5230060743309333	-0.5792348965168095	-0.17281293782248153	1.5465859550122185	-0.5979815392706175	-0.1659389071926182	1.8275600909643224	-0.7286167964532947	-0.175786554212904	1.6929725581864556	-0.7209780403168582	-0.27428031455138147	1.5013234386845744	-1.0954754656695802	-0.3045142459853628	1.4718583006539545	-1.0424892987836214	-0.2853759674565516	1.472920313546083	-1.0474578466342128	-0.26658703971360814	1.4859322373118156	-1.1148908041983463	-0.17452136119314926	1.9944223596193502	-0.69434049521971	-0.22324073271509903	2.0548554925796054	-0.6992981726837092	-0.20790846607817928	1.9939071606102832	-0.623498977161439	-0.24372568714829004	1.931232419447225	-0.5116777993465913	-0.6142288688793063	1.862041672859711	-0.11049918253834695	-0.14209078313940432	1.994442873878521	-0.7662814394759592	-0.12857720028960284	1.9039718733996955	-0.7935969684765771	-0.16227798761687717	1.8284040106146875	-0.8122326949387321
65	2.1666666666666665	-0.1795067024802882	1.8270290490255052	-0.673403406734477	-0.1999084838983502	1.8225947539825897	-0.6138899524535079	-0.19455062025693232	1.6862868059376346	-0.6086870035634618	-0.18476340193976387	1.5543390471641974	-0.5954431574773517	-0.2314279249802215	1.5195568189431656	-0.5997438888657638	-0.22293662569000974	1.5234723407366544	-0.5793468205793337	-0.1727027718286547	1.5466396149687893	-0.5980696593722762	-0.15736606246240803	1.8290745502415067	-0.7295641955166092	-0.17455671103867546	1.6935859006126335	-0.7181595135720558	-0.26192374245667915	1.5072885835209757	-1.1137240196259215	-0.28183986482547474	1.4797209808639313	-1.059808372258211	-0.26052292546826583	1.4828789314068196	-1.068651963398803	-0.2567270409015484	1.497110962603149	-1.1300150975934857	-0.173524426889338	1.988898732957811	-0.6902210139656031	-0.21568465531517364	2.0542948143518327	-0.7024882604954308	-0.20891109189134188	1.990423756989904	-0.6167866810780613	-0.2382591510514327	1.9162130004609998	-0.505773231687554	-0.2563803039535839	1.8542941791296397	-0.3851106456851348	-0.13525154787967988	1.9930012116274616	-0.7619213188377568	-0.12046744923020915	1.906761387047817	-0.7977586437829144	-0.1449295534150584	1.8272541841855023	-0.8021893736226376
66	2.2	-0.1781666761380154	1.8288489001675337	-0.6757482217342472	-0.19850788279658382	1.8270278412248	-0.6164403634736764	-0.18970880903417794	1.686615050708146	-0.609508330840984	-0.1836535531144932	1.5573074132434686	-0.596190441894926	-0.22830054764451027	1.5197406427008051	-0.5986045227252661	-0.2223916436679545	1.523060663777808	-0.5754139841617081	-0.17277763927466075	1.546874366076202	-0.5981722383403082	-0.16070563125821127	1.8291773272614358	-0.7387808638196349	-0.16468635705276358	1.6966363802191813	-0.7040316027771095	-0.23533143286496908	1.5122758524599307	-1.155414726437202	-0.2603484404740817	1.4861018588875987	-1.0929821187404614	-0.23956084498195326	1.488056781747477	-1.104180092591974	-0.22808460562639601	1.5015320346347134	-1.1779978412519991	-0.16606147985283945	1.9895943709568544	-0.6940104406058061	-0.207952613676922	2.0523008070981676	-0.695120051632877	-0.19722002600619126	1.9875445871401392	-0.6044823396171278	-0.20064215809302893	1.9040077451270445	-0.5297635347542916	-0.24734440428102777	1.8501500256097454	-0.42153423058216666	-0.12856306640550139	1.9920254946260627	-0.7690479546799658	-0.11293432662843747	1.9063998991129918	-0.8057844015887548	-0.12477285599801874	1.8237617317022674	-0.8148322478913002
